solid Created by Gmsh
facet normal 0 0 1
  outer loop
    vertex 0.25 0.18 -0.04
    vertex -0.25 0.18 -0.04
    vertex -0.25 -0.18 -0.04
  endloop
endfacet
facet normal 0 0 1
  outer loop
    vertex 0.25 0.18 -0.04
    vertex -0.25 -0.18 -0.04
    vertex 0.25 -0.18 -0.04
  endloop
endfacet
facet normal -0 0 -1
  outer loop
    vertex 0.25 0.18 -0.05
    vertex -0.25 -0.18 -0.05
    vertex -0.25 0.18 -0.05
  endloop
endfacet
facet normal 0 -0 -1
  outer loop
    vertex 0.25 0.18 -0.05
    vertex 0.25 -0.18 -0.05
    vertex -0.25 -0.18 -0.05
  endloop
endfacet
facet normal 0.906308 -1.25775e-16 -0.422618
  outer loop
    vertex 0.259808 0.2 -0.15
    vertex 0.281908 -0.2 -0.102606
    vertex 0.259808 -0.2 -0.15
  endloop
endfacet
facet normal 0.906308 -1.24398e-16 -0.422618
  outer loop
    vertex 0.259808 0.2 -0.15
    vertex 0.281908 0.2 -0.102606
    vertex 0.281908 -0.2 -0.102606
  endloop
endfacet
facet normal -0.990266 0.0090451 -0.138895
  outer loop
    vertex -0.297321 0.18 -0.04
    vertex -0.295442 0.2 -0.0520945
    vertex -0.296853 0.18 -0.0433389
  endloop
endfacet
facet normal 0.819152 -1.1368e-16 -0.573576
  outer loop
    vertex 0.229813 0.2 -0.192836
    vertex 0.259808 -0.2 -0.15
    vertex 0.229813 -0.2 -0.192836
  endloop
endfacet
facet normal -0.995363 0.0408557 -0.087083
  outer loop
    vertex -0.3 0.2 -8.5447e-16
    vertex -0.295442 0.2 -0.0520945
    vertex -0.297321 0.18 -0.04
  endloop
endfacet
facet normal -0.997765 1.38468e-16 -0.066816
  outer loop
    vertex -0.3 0.2 -8.5447e-16
    vertex -0.297321 -0.18 -0.04
    vertex -0.3 -0.2 -8.5447e-16
  endloop
endfacet
facet normal 0.819152 -1.14032e-16 -0.573576
  outer loop
    vertex 0.229813 0.2 -0.192836
    vertex 0.259808 0.2 -0.15
    vertex 0.259808 -0.2 -0.15
  endloop
endfacet
facet normal -0.997765 1.04234e-16 -0.066816
  outer loop
    vertex -0.3 0.2 -8.5447e-16
    vertex -0.297321 0.18 -0.04
    vertex -0.297321 -0.18 -0.04
  endloop
endfacet
facet normal 0.707107 -9.81308e-17 -0.707107
  outer loop
    vertex 0.192836 0.2 -0.229813
    vertex 0.229813 -0.2 -0.192836
    vertex 0.192836 -0.2 -0.229813
  endloop
endfacet
facet normal 0.0871557 -9.07147e-18 0.996195
  outer loop
    vertex 0.0520945 0.2 0.295442
    vertex -2.22045e-17 -0.2 0.3
    vertex 0.0520945 -0.2 0.295442
  endloop
endfacet
facet normal -0.996195 1.3825e-16 0.0871557
  outer loop
    vertex -0.295442 0.2 0.0520945
    vertex -0.3 -0.2 -8.5447e-16
    vertex -0.295442 -0.2 0.0520945
  endloop
endfacet
facet normal 0.707107 -1.03665e-16 -0.707107
  outer loop
    vertex 0.192836 0.2 -0.229813
    vertex 0.229813 0.2 -0.192836
    vertex 0.229813 -0.2 -0.192836
  endloop
endfacet
facet normal 0.0871557 -9.07071e-18 0.996195
  outer loop
    vertex 0.0520945 0.2 0.295442
    vertex 2.22045e-17 0.2 0.3
    vertex -2.22045e-17 -0.2 0.3
  endloop
endfacet
facet normal -0.996195 1.37356e-16 0.0871557
  outer loop
    vertex -0.295442 0.2 0.0520945
    vertex -0.3 0.2 -8.5447e-16
    vertex -0.3 -0.2 -8.5447e-16
  endloop
endfacet
facet normal 0.258819 -2.69388e-17 0.965926
  outer loop
    vertex 0.102606 0.2 0.281908
    vertex 0.0520945 -0.2 0.295442
    vertex 0.102606 -0.2 0.281908
  endloop
endfacet
facet normal 0.573576 -7.95997e-17 -0.819152
  outer loop
    vertex 0.15 0.2 -0.259808
    vertex 0.192836 -0.2 -0.229813
    vertex 0.15 -0.2 -0.259808
  endloop
endfacet
facet normal -0.965926 1.34049e-16 0.258819
  outer loop
    vertex -0.281908 0.2 0.102606
    vertex -0.295442 -0.2 0.0520945
    vertex -0.281908 -0.2 0.102606
  endloop
endfacet
facet normal 0.573576 -7.25656e-17 -0.819152
  outer loop
    vertex 0.15 0.2 -0.259808
    vertex 0.192836 0.2 -0.229813
    vertex 0.192836 -0.2 -0.229813
  endloop
endfacet
facet normal 0.258819 -2.59163e-17 0.965926
  outer loop
    vertex 0.102606 0.2 0.281908
    vertex 0.0520945 0.2 0.295442
    vertex 0.0520945 -0.2 0.295442
  endloop
endfacet
facet normal -0.965926 1.34765e-16 0.258819
  outer loop
    vertex -0.281908 0.2 0.102606
    vertex -0.295442 0.2 0.0520945
    vertex -0.295442 -0.2 0.0520945
  endloop
endfacet
facet normal 0.422618 -5.86501e-17 0.906308
  outer loop
    vertex 0.15 0.2 0.259808
    vertex 0.102606 -0.2 0.281908
    vertex 0.15 -0.2 0.259808
  endloop
endfacet
facet normal 0.422618 -4.39875e-17 -0.906308
  outer loop
    vertex 0.102606 0.2 -0.281908
    vertex 0.15 -0.2 -0.259808
    vertex 0.102606 -0.2 -0.281908
  endloop
endfacet
facet normal 0.422618 -4.14661e-17 0.906308
  outer loop
    vertex 0.15 0.2 0.259808
    vertex 0.102606 0.2 0.281908
    vertex 0.102606 -0.2 0.281908
  endloop
endfacet
facet normal -0.906308 1.25775e-16 0.422618
  outer loop
    vertex -0.259808 0.2 0.15
    vertex -0.281908 -0.2 0.102606
    vertex -0.259808 -0.2 0.15
  endloop
endfacet
facet normal 0.422618 -6.21991e-17 -0.906308
  outer loop
    vertex 0.102606 0.2 -0.281908
    vertex 0.15 0.2 -0.259808
    vertex 0.15 -0.2 -0.259808
  endloop
endfacet
facet normal -0.906308 1.34765e-16 0.422618
  outer loop
    vertex -0.259808 0.2 0.15
    vertex -0.281908 0.2 0.102606
    vertex -0.281908 -0.2 0.102606
  endloop
endfacet
facet normal 0.258819 -2.69388e-17 -0.965926
  outer loop
    vertex 0.0520945 0.2 -0.295442
    vertex 0.102606 -0.2 -0.281908
    vertex 0.0520945 -0.2 -0.295442
  endloop
endfacet
facet normal 0.573576 -7.95997e-17 0.819152
  outer loop
    vertex 0.192836 0.2 0.229813
    vertex 0.15 -0.2 0.259808
    vertex 0.192836 -0.2 0.229813
  endloop
endfacet
facet normal 0.258819 -2.59163e-17 -0.965926
  outer loop
    vertex 0.0520945 0.2 -0.295442
    vertex 0.102606 0.2 -0.281908
    vertex 0.102606 -0.2 -0.281908
  endloop
endfacet
facet normal 0.573576 -7.25656e-17 0.819152
  outer loop
    vertex 0.192836 0.2 0.229813
    vertex 0.15 0.2 0.259808
    vertex 0.15 -0.2 0.259808
  endloop
endfacet
facet normal -0.819152 1.1368e-16 0.573576
  outer loop
    vertex -0.229813 0.2 0.192836
    vertex -0.259808 -0.2 0.15
    vertex -0.229813 -0.2 0.192836
  endloop
endfacet
facet normal -0.819152 1.14032e-16 0.573576
  outer loop
    vertex -0.229813 0.2 0.192836
    vertex -0.259808 0.2 0.15
    vertex -0.259808 -0.2 0.15
  endloop
endfacet
facet normal 0.0871557 -9.67623e-18 -0.996195
  outer loop
    vertex 4.58624e-16 0.2 -0.3
    vertex 0.0520945 -0.2 -0.295442
    vertex 4.14215e-16 -0.2 -0.3
  endloop
endfacet
facet normal 0.707107 -9.81308e-17 0.707107
  outer loop
    vertex 0.229813 0.2 0.192836
    vertex 0.192836 -0.2 0.229813
    vertex 0.229813 -0.2 0.192836
  endloop
endfacet
facet normal 0.0871557 -9.07071e-18 -0.996195
  outer loop
    vertex 4.58624e-16 0.2 -0.3
    vertex 0.0520945 0.2 -0.295442
    vertex 0.0520945 -0.2 -0.295442
  endloop
endfacet
facet normal 0.707107 -1.03665e-16 0.707107
  outer loop
    vertex 0.229813 0.2 0.192836
    vertex 0.192836 0.2 0.229813
    vertex 0.192836 -0.2 0.229813
  endloop
endfacet
facet normal -0.707107 9.81308e-17 0.707107
  outer loop
    vertex -0.192836 0.2 0.229813
    vertex -0.229813 -0.2 0.192836
    vertex -0.192836 -0.2 0.229813
  endloop
endfacet
facet normal -0.707107 9.32987e-17 0.707107
  outer loop
    vertex -0.192836 0.2 0.229813
    vertex -0.229813 0.2 0.192836
    vertex -0.229813 -0.2 0.192836
  endloop
endfacet
facet normal -0.0871557 9.07147e-18 -0.996195
  outer loop
    vertex -0.0520945 0.2 -0.295442
    vertex 4.14215e-16 -0.2 -0.3
    vertex -0.0520945 -0.2 -0.295442
  endloop
endfacet
facet normal 0.819152 -1.1368e-16 0.573576
  outer loop
    vertex 0.259808 0.2 0.15
    vertex 0.229813 -0.2 0.192836
    vertex 0.259808 -0.2 0.15
  endloop
endfacet
facet normal -0.0871557 9.07071e-18 -0.996195
  outer loop
    vertex -0.0520945 0.2 -0.295442
    vertex 4.58624e-16 0.2 -0.3
    vertex 4.14215e-16 -0.2 -0.3
  endloop
endfacet
facet normal 0.819152 -1.14032e-16 0.573576
  outer loop
    vertex 0.259808 0.2 0.15
    vertex 0.229813 0.2 0.192836
    vertex 0.229813 -0.2 0.192836
  endloop
endfacet
facet normal -0.573576 7.95997e-17 0.819152
  outer loop
    vertex -0.15 0.2 0.259808
    vertex -0.192836 -0.2 0.229813
    vertex -0.15 -0.2 0.259808
  endloop
endfacet
facet normal -0.573576 7.25656e-17 0.819152
  outer loop
    vertex -0.15 0.2 0.259808
    vertex -0.192836 0.2 0.229813
    vertex -0.192836 -0.2 0.229813
  endloop
endfacet
facet normal -0.258819 2.69388e-17 -0.965926
  outer loop
    vertex -0.102606 0.2 -0.281908
    vertex -0.0520945 -0.2 -0.295442
    vertex -0.102606 -0.2 -0.281908
  endloop
endfacet
facet normal -0.258819 3.10996e-17 -0.965926
  outer loop
    vertex -0.102606 0.2 -0.281908
    vertex -0.0520945 0.2 -0.295442
    vertex -0.0520945 -0.2 -0.295442
  endloop
endfacet
facet normal 0.906308 -1.25775e-16 0.422618
  outer loop
    vertex 0.281908 0.2 0.102606
    vertex 0.259808 -0.2 0.15
    vertex 0.281908 -0.2 0.102606
  endloop
endfacet
facet normal 0.906308 -1.24398e-16 0.422618
  outer loop
    vertex 0.281908 0.2 0.102606
    vertex 0.259808 0.2 0.15
    vertex 0.259808 -0.2 0.15
  endloop
endfacet
facet normal -0.422618 4.39875e-17 0.906308
  outer loop
    vertex -0.102606 0.2 0.281908
    vertex -0.15 -0.2 0.259808
    vertex -0.102606 -0.2 0.281908
  endloop
endfacet
facet normal -0.422618 6.21991e-17 0.906308
  outer loop
    vertex -0.102606 0.2 0.281908
    vertex -0.15 0.2 0.259808
    vertex -0.15 -0.2 0.259808
  endloop
endfacet
facet normal -0.422618 5.86501e-17 -0.906308
  outer loop
    vertex -0.15 0.2 -0.259808
    vertex -0.102606 -0.2 -0.281908
    vertex -0.15 -0.2 -0.259808
  endloop
endfacet
facet normal -0.422618 4.14661e-17 -0.906308
  outer loop
    vertex -0.15 0.2 -0.259808
    vertex -0.102606 0.2 -0.281908
    vertex -0.102606 -0.2 -0.281908
  endloop
endfacet
facet normal -0.258819 2.69388e-17 0.965926
  outer loop
    vertex -0.0520945 0.2 0.295442
    vertex -0.102606 -0.2 0.281908
    vertex -0.0520945 -0.2 0.295442
  endloop
endfacet
facet normal -0.258819 2.59163e-17 0.965926
  outer loop
    vertex -0.0520945 0.2 0.295442
    vertex -0.102606 0.2 0.281908
    vertex -0.102606 -0.2 0.281908
  endloop
endfacet
facet normal -0.0871557 9.07071e-18 0.996195
  outer loop
    vertex -5.12743e-17 0.2 0.3
    vertex -0.0520945 0.2 0.295442
    vertex -0.0520945 -0.2 0.295442
  endloop
endfacet
facet normal -0.0871557 9.67623e-18 0.996195
  outer loop
    vertex -5.12743e-17 0.2 0.3
    vertex -0.0520945 -0.2 0.295442
    vertex -9.56833e-17 -0.2 0.3
  endloop
endfacet
facet normal -0.573576 7.95997e-17 -0.819152
  outer loop
    vertex -0.192836 0.2 -0.229813
    vertex -0.15 -0.2 -0.259808
    vertex -0.192836 -0.2 -0.229813
  endloop
endfacet
facet normal -0.573576 8.29322e-17 -0.819152
  outer loop
    vertex -0.192836 0.2 -0.229813
    vertex -0.15 0.2 -0.259808
    vertex -0.15 -0.2 -0.259808
  endloop
endfacet
facet normal 0.995363 -0.0408557 -0.087083
  outer loop
    vertex 0.295442 -0.2 -0.0520945
    vertex 0.297321 -0.18 -0.04
    vertex 0.3 -0.2 1.83697e-17
  endloop
endfacet
facet normal 0.990266 -0.0090451 -0.138895
  outer loop
    vertex 0.295442 -0.2 -0.0520945
    vertex 0.296853 -0.18 -0.0433389
    vertex 0.297321 -0.18 -0.04
  endloop
endfacet
facet normal 0.988675 -0.00406247 -0.15002
  outer loop
    vertex 0.295442 -0.2 -0.0520945
    vertex 0.296347 -0.18 -0.0466724
    vertex 0.296853 -0.18 -0.0433389
  endloop
endfacet
facet normal 0.965926 -1.34049e-16 0.258819
  outer loop
    vertex 0.295442 0.2 0.0520945
    vertex 0.281908 -0.2 0.102606
    vertex 0.295442 -0.2 0.0520945
  endloop
endfacet
facet normal -0.707107 9.81308e-17 -0.707107
  outer loop
    vertex -0.229813 0.2 -0.192836
    vertex -0.192836 -0.2 -0.229813
    vertex -0.229813 -0.2 -0.192836
  endloop
endfacet
facet normal 0.965926 -1.34765e-16 0.258819
  outer loop
    vertex 0.295442 0.2 0.0520945
    vertex 0.281908 0.2 0.102606
    vertex 0.281908 -0.2 0.102606
  endloop
endfacet
facet normal -0.707107 9.32987e-17 -0.707107
  outer loop
    vertex -0.229813 0.2 -0.192836
    vertex -0.192836 0.2 -0.229813
    vertex -0.192836 -0.2 -0.229813
  endloop
endfacet
facet normal 0.986934 -0.000973637 -0.161123
  outer loop
    vertex 0.295804 -0.18 -0.05
    vertex 0.296347 -0.18 -0.0466724
    vertex 0.295442 -0.2 -0.0520945
  endloop
endfacet
facet normal -0.819152 1.14032e-16 -0.573576
  outer loop
    vertex -0.259808 0.2 -0.15
    vertex -0.229813 0.2 -0.192836
    vertex -0.229813 -0.2 -0.192836
  endloop
endfacet
facet normal -0.819152 1.1368e-16 -0.573576
  outer loop
    vertex -0.259808 0.2 -0.15
    vertex -0.229813 -0.2 -0.192836
    vertex -0.259808 -0.2 -0.15
  endloop
endfacet
facet normal 0.965881 0.00963678 -0.258807
  outer loop
    vertex 0.281908 -0.2 -0.102606
    vertex 0.295804 -0.18 -0.05
    vertex 0.295442 -0.2 -0.0520945
  endloop
endfacet
facet normal -0.965881 0.00963678 -0.258807
  outer loop
    vertex -0.295804 -0.18 -0.05
    vertex -0.281908 -0.2 -0.102606
    vertex -0.295442 -0.2 -0.0520945
  endloop
endfacet
facet normal 0.996195 -1.3825e-16 0.0871557
  outer loop
    vertex 0.3 0.2 1.83697e-17
    vertex 0.295442 -0.2 0.0520945
    vertex 0.3 -0.2 1.83697e-17
  endloop
endfacet
facet normal 0.996195 -1.38652e-16 0.0871557
  outer loop
    vertex 0.3 0.2 1.83697e-17
    vertex 0.295442 0.2 0.0520945
    vertex 0.295442 -0.2 0.0520945
  endloop
endfacet
facet normal -0.986934 -0.000973637 -0.161123
  outer loop
    vertex -0.296347 -0.18 -0.0466724
    vertex -0.295804 -0.18 -0.05
    vertex -0.295442 -0.2 -0.0520945
  endloop
endfacet
facet normal 0.997765 -1.53853e-16 -0.066816
  outer loop
    vertex 0.297321 0.18 -0.04
    vertex 0.3 -0.2 1.83697e-17
    vertex 0.297321 -0.18 -0.04
  endloop
endfacet
facet normal -0.988675 -0.00406247 -0.15002
  outer loop
    vertex -0.296853 -0.18 -0.0433389
    vertex -0.296347 -0.18 -0.0466724
    vertex -0.295442 -0.2 -0.0520945
  endloop
endfacet
facet normal 0.997765 -1.38603e-16 -0.066816
  outer loop
    vertex 0.297321 0.18 -0.04
    vertex 0.3 0.2 1.83697e-17
    vertex 0.3 -0.2 1.83697e-17
  endloop
endfacet
facet normal -0.990266 -0.0090451 -0.138895
  outer loop
    vertex -0.297321 -0.18 -0.04
    vertex -0.296853 -0.18 -0.0433389
    vertex -0.295442 -0.2 -0.0520945
  endloop
endfacet
facet normal -0.995363 -0.0408557 -0.087083
  outer loop
    vertex -0.3 -0.2 -8.5447e-16
    vertex -0.297321 -0.18 -0.04
    vertex -0.295442 -0.2 -0.0520945
  endloop
endfacet
facet normal -0.906308 1.24398e-16 -0.422618
  outer loop
    vertex -0.281908 0.2 -0.102606
    vertex -0.259808 0.2 -0.15
    vertex -0.259808 -0.2 -0.15
  endloop
endfacet
facet normal -0.906308 1.25775e-16 -0.422618
  outer loop
    vertex -0.281908 0.2 -0.102606
    vertex -0.259808 -0.2 -0.15
    vertex -0.281908 -0.2 -0.102606
  endloop
endfacet
facet normal -0.966837 1.34503e-16 -0.255396
  outer loop
    vertex -0.295804 0.18 -0.05
    vertex -0.281908 0.2 -0.102606
    vertex -0.281908 -0.2 -0.102606
  endloop
endfacet
facet normal -0.966837 1.49084e-16 -0.255396
  outer loop
    vertex -0.295804 0.18 -0.05
    vertex -0.281908 -0.2 -0.102606
    vertex -0.295804 -0.18 -0.05
  endloop
endfacet
facet normal -0.965881 -0.00963678 -0.258807
  outer loop
    vertex -0.295442 0.2 -0.0520945
    vertex -0.281908 0.2 -0.102606
    vertex -0.295804 0.18 -0.05
  endloop
endfacet
facet normal 0.995363 0.0408557 -0.087083
  outer loop
    vertex 0.295442 0.2 -0.0520945
    vertex 0.3 0.2 1.83697e-17
    vertex 0.297321 0.18 -0.04
  endloop
endfacet
facet normal 0.990266 0.0090451 -0.138895
  outer loop
    vertex 0.295442 0.2 -0.0520945
    vertex 0.297321 0.18 -0.04
    vertex 0.296853 0.18 -0.0433389
  endloop
endfacet
facet normal 0.988675 0.00406247 -0.15002
  outer loop
    vertex 0.295442 0.2 -0.0520945
    vertex 0.296853 0.18 -0.0433389
    vertex 0.296347 0.18 -0.0466724
  endloop
endfacet
facet normal 0.986934 0.000973637 -0.161123
  outer loop
    vertex 0.295442 0.2 -0.0520945
    vertex 0.296347 0.18 -0.0466724
    vertex 0.295804 0.18 -0.05
  endloop
endfacet
facet normal -0.986934 0.000973637 -0.161123
  outer loop
    vertex -0.296347 0.18 -0.0466724
    vertex -0.295442 0.2 -0.0520945
    vertex -0.295804 0.18 -0.05
  endloop
endfacet
facet normal 0.966837 -1.34176e-16 -0.255396
  outer loop
    vertex 0.281908 0.2 -0.102606
    vertex 0.295804 -0.18 -0.05
    vertex 0.281908 -0.2 -0.102606
  endloop
endfacet
facet normal 0.965881 -0.00963678 -0.258807
  outer loop
    vertex 0.281908 0.2 -0.102606
    vertex 0.295442 0.2 -0.0520945
    vertex 0.295804 0.18 -0.05
  endloop
endfacet
facet normal -0.988675 0.00406247 -0.15002
  outer loop
    vertex -0.296853 0.18 -0.0433389
    vertex -0.295442 0.2 -0.0520945
    vertex -0.296347 0.18 -0.0466724
  endloop
endfacet
facet normal 0.966837 -1.49448e-16 -0.255396
  outer loop
    vertex 0.281908 0.2 -0.102606
    vertex 0.295804 0.18 -0.05
    vertex 0.295804 -0.18 -0.05
  endloop
endfacet
facet normal 0 -1 -0
  outer loop
    vertex 0.281908 -0.2 0.102606
    vertex 0.25 -0.2 -0.04
    vertex 0.295442 -0.2 0.0520945
  endloop
endfacet
facet normal -6.93499e-16 -1 -2.31315e-16
  outer loop
    vertex 0.15 -0.2 0.259808
    vertex 0.102606 -0.2 0.281908
    vertex 0.25 -0.2 -0.04
  endloop
endfacet
facet normal 0 -1 -0
  outer loop
    vertex 0.259808 -0.2 0.15
    vertex 0.25 -0.2 -0.04
    vertex 0.281908 -0.2 0.102606
  endloop
endfacet
facet normal -0 -1 -0
  outer loop
    vertex 0.192836 -0.2 0.229813
    vertex 0.15 -0.2 0.259808
    vertex 0.25 -0.2 -0.04
  endloop
endfacet
facet normal 0 -1 0
  outer loop
    vertex 0.229813 -0.2 0.192836
    vertex 0.25 -0.2 -0.04
    vertex 0.259808 -0.2 0.15
  endloop
endfacet
facet normal -0 -1 -0
  outer loop
    vertex 0.229813 -0.2 0.192836
    vertex 0.192836 -0.2 0.229813
    vertex 0.25 -0.2 -0.04
  endloop
endfacet
facet normal 3.86515e-17 -1 1.44249e-16
  outer loop
    vertex -0.25 -0.2 -0.05
    vertex -0.102606 -0.2 -0.281908
    vertex -0.0520945 -0.2 -0.295442
  endloop
endfacet
facet normal -7.52991e-16 -1 -3.58896e-16
  outer loop
    vertex -0.25 -0.2 -0.05
    vertex -0.15 -0.2 -0.259808
    vertex -0.102606 -0.2 -0.281908
  endloop
endfacet
facet normal 0 -1 0
  outer loop
    vertex -0.25 -0.2 -0.05
    vertex -0.192836 -0.2 -0.229813
    vertex -0.15 -0.2 -0.259808
  endloop
endfacet
facet normal 0 -1 0
  outer loop
    vertex -0.25 -0.2 -0.05
    vertex -0.229813 -0.2 -0.192836
    vertex -0.192836 -0.2 -0.229813
  endloop
endfacet
facet normal 0 -1 -0
  outer loop
    vertex -0.25 -0.2 -0.05
    vertex -0.259808 -0.2 -0.15
    vertex -0.229813 -0.2 -0.192836
  endloop
endfacet
facet normal 0 -1 0
  outer loop
    vertex -0.25 -0.2 -0.05
    vertex -0.281908 -0.2 -0.102606
    vertex -0.259808 -0.2 -0.15
  endloop
endfacet
facet normal 0 -1 0
  outer loop
    vertex -0.25 -0.2 -0.05
    vertex -0.295442 -0.2 -0.0520945
    vertex -0.281908 -0.2 -0.102606
  endloop
endfacet
facet normal 1.06445e-17 -1 1.21667e-16
  outer loop
    vertex 4.21885e-16 -0.2 -0.3
    vertex -0.25 -0.2 -0.05
    vertex -0.0520945 -0.2 -0.295442
  endloop
endfacet
facet normal -0 -1 0
  outer loop
    vertex -0.25 -0.2 -0.04
    vertex -0.3 -0.2 -8.32667e-16
    vertex -0.295442 -0.2 -0.0520945
  endloop
endfacet
facet normal 0 -1 -0
  outer loop
    vertex -0.25 -0.2 -0.04
    vertex -0.295442 -0.2 -0.0520945
    vertex -0.25 -0.2 -0.05
  endloop
endfacet
facet normal 0 -1 -0
  outer loop
    vertex -0.295442 -0.2 0.0520945
    vertex -0.3 -0.2 -8.32667e-16
    vertex -0.25 -0.2 -0.04
  endloop
endfacet
facet normal 0 -1 -0
  outer loop
    vertex -0.281908 -0.2 0.102606
    vertex -0.295442 -0.2 0.0520945
    vertex -0.25 -0.2 -0.04
  endloop
endfacet
facet normal 0 -1 -0
  outer loop
    vertex -0.259808 -0.2 0.15
    vertex -0.281908 -0.2 0.102606
    vertex -0.25 -0.2 -0.04
  endloop
endfacet
facet normal 0 -1 0
  outer loop
    vertex -0.229813 -0.2 0.192836
    vertex -0.259808 -0.2 0.15
    vertex -0.25 -0.2 -0.04
  endloop
endfacet
facet normal 0 -1 0
  outer loop
    vertex -0.192836 -0.2 0.229813
    vertex -0.229813 -0.2 0.192836
    vertex -0.25 -0.2 -0.04
  endloop
endfacet
facet normal 0 -1 0
  outer loop
    vertex -0.15 -0.2 0.259808
    vertex -0.192836 -0.2 0.229813
    vertex -0.25 -0.2 -0.04
  endloop
endfacet
facet normal -6.93499e-16 -1 2.31315e-16
  outer loop
    vertex -0.102606 -0.2 0.281908
    vertex -0.15 -0.2 0.259808
    vertex -0.25 -0.2 -0.04
  endloop
endfacet
facet normal 0 -1 0
  outer loop
    vertex 0.25 -0.2 -0.05
    vertex 0.259808 -0.2 -0.15
    vertex 0.281908 -0.2 -0.102606
  endloop
endfacet
facet normal 0 -1 -0
  outer loop
    vertex 0.25 -0.2 -0.05
    vertex 0.229813 -0.2 -0.192836
    vertex 0.259808 -0.2 -0.15
  endloop
endfacet
facet normal 0 -1 0
  outer loop
    vertex 0.25 -0.2 -0.05
    vertex 0.192836 -0.2 -0.229813
    vertex 0.229813 -0.2 -0.192836
  endloop
endfacet
facet normal 0 -1 0
  outer loop
    vertex 0.25 -0.2 -0.05
    vertex 0.15 -0.2 -0.259808
    vertex 0.192836 -0.2 -0.229813
  endloop
endfacet
facet normal -7.52991e-16 -1 3.58896e-16
  outer loop
    vertex 0.25 -0.2 -0.05
    vertex 0.102606 -0.2 -0.281908
    vertex 0.15 -0.2 -0.259808
  endloop
endfacet
facet normal 3.86515e-17 -1 -1.44249e-16
  outer loop
    vertex 0.25 -0.2 -0.05
    vertex 0.0520945 -0.2 -0.295442
    vertex 0.102606 -0.2 -0.281908
  endloop
endfacet
facet normal 1.06445e-17 -1 -1.21667e-16
  outer loop
    vertex 0.25 -0.2 -0.05
    vertex 4.21885e-16 -0.2 -0.3
    vertex 0.0520945 -0.2 -0.295442
  endloop
endfacet
facet normal -1.11022e-16 -1 -1.60237e-31
  outer loop
    vertex 0.25 -0.2 -0.05
    vertex -0.25 -0.2 -0.05
    vertex 4.21885e-16 -0.2 -0.3
  endloop
endfacet
facet normal 2.6334e-17 -1 -9.82799e-17
  outer loop
    vertex -0.0520945 -0.2 0.295442
    vertex -0.102606 -0.2 0.281908
    vertex -0.25 -0.2 -0.04
  endloop
endfacet
facet normal 0 -1 0
  outer loop
    vertex 0.295442 -0.2 -0.0520945
    vertex 0.25 -0.2 -0.04
    vertex 0.25 -0.2 -0.05
  endloop
endfacet
facet normal -0 -1 0
  outer loop
    vertex 0.295442 -0.2 -0.0520945
    vertex 0.25 -0.2 -0.05
    vertex 0.281908 -0.2 -0.102606
  endloop
endfacet
facet normal 0 -1 0
  outer loop
    vertex 0.3 -0.2 0
    vertex 0.25 -0.2 -0.04
    vertex 0.295442 -0.2 -0.0520945
  endloop
endfacet
facet normal -1.11022e-16 -1 -1.35948e-32
  outer loop
    vertex -2.22045e-17 -0.2 0.3
    vertex -0.25 -0.2 -0.04
    vertex 0.25 -0.2 -0.04
  endloop
endfacet
facet normal 7.63309e-18 -1 -8.72466e-17
  outer loop
    vertex -2.22045e-17 -0.2 0.3
    vertex -0.0520945 -0.2 0.295442
    vertex -0.25 -0.2 -0.04
  endloop
endfacet
facet normal 0 -1 -0
  outer loop
    vertex 0.295442 -0.2 0.0520945
    vertex 0.25 -0.2 -0.04
    vertex 0.3 -0.2 0
  endloop
endfacet
facet normal 7.63309e-18 -1 8.72466e-17
  outer loop
    vertex 0.0520945 -0.2 0.295442
    vertex -2.22045e-17 -0.2 0.3
    vertex 0.25 -0.2 -0.04
  endloop
endfacet
facet normal 2.6334e-17 -1 9.82799e-17
  outer loop
    vertex 0.102606 -0.2 0.281908
    vertex 0.0520945 -0.2 0.295442
    vertex 0.25 -0.2 -0.04
  endloop
endfacet
facet normal 0 1 0
  outer loop
    vertex 0.281908 0.2 0.102606
    vertex 0.295442 0.2 0.0520945
    vertex 0.25 0.2 -0.04
  endloop
endfacet
facet normal 6.93499e-16 1 2.31315e-16
  outer loop
    vertex 0.15 0.2 0.259808
    vertex 0.25 0.2 -0.04
    vertex 0.102606 0.2 0.281908
  endloop
endfacet
facet normal 0 1 0
  outer loop
    vertex 0.259808 0.2 0.15
    vertex 0.281908 0.2 0.102606
    vertex 0.25 0.2 -0.04
  endloop
endfacet
facet normal 0 1 0
  outer loop
    vertex 0.192836 0.2 0.229813
    vertex 0.25 0.2 -0.04
    vertex 0.15 0.2 0.259808
  endloop
endfacet
facet normal 0 1 0
  outer loop
    vertex 0.229813 0.2 0.192836
    vertex 0.259808 0.2 0.15
    vertex 0.25 0.2 -0.04
  endloop
endfacet
facet normal 0 1 0
  outer loop
    vertex 0.229813 0.2 0.192836
    vertex 0.25 0.2 -0.04
    vertex 0.192836 0.2 0.229813
  endloop
endfacet
facet normal -3.86515e-17 1 -1.44249e-16
  outer loop
    vertex -0.25 0.2 -0.05
    vertex -0.0520945 0.2 -0.295442
    vertex -0.102606 0.2 -0.281908
  endloop
endfacet
facet normal 7.52991e-16 1 3.58896e-16
  outer loop
    vertex -0.25 0.2 -0.05
    vertex -0.102606 0.2 -0.281908
    vertex -0.15 0.2 -0.259808
  endloop
endfacet
facet normal 0 1 0
  outer loop
    vertex -0.25 0.2 -0.05
    vertex -0.15 0.2 -0.259808
    vertex -0.192836 0.2 -0.229813
  endloop
endfacet
facet normal 0 1 0
  outer loop
    vertex -0.25 0.2 -0.05
    vertex -0.192836 0.2 -0.229813
    vertex -0.229813 0.2 -0.192836
  endloop
endfacet
facet normal 0 1 0
  outer loop
    vertex -0.25 0.2 -0.05
    vertex -0.229813 0.2 -0.192836
    vertex -0.259808 0.2 -0.15
  endloop
endfacet
facet normal 0 1 0
  outer loop
    vertex -0.25 0.2 -0.05
    vertex -0.259808 0.2 -0.15
    vertex -0.281908 0.2 -0.102606
  endloop
endfacet
facet normal 0 1 0
  outer loop
    vertex -0.25 0.2 -0.05
    vertex -0.281908 0.2 -0.102606
    vertex -0.295442 0.2 -0.0520945
  endloop
endfacet
facet normal -1.06445e-17 1 -1.21667e-16
  outer loop
    vertex 4.66294e-16 0.2 -0.3
    vertex -0.0520945 0.2 -0.295442
    vertex -0.25 0.2 -0.05
  endloop
endfacet
facet normal 0 1 0
  outer loop
    vertex -0.25 0.2 -0.04
    vertex -0.295442 0.2 -0.0520945
    vertex -0.3 0.2 -8.32667e-16
  endloop
endfacet
facet normal 0 1 0
  outer loop
    vertex -0.25 0.2 -0.04
    vertex -0.25 0.2 -0.05
    vertex -0.295442 0.2 -0.0520945
  endloop
endfacet
facet normal 0 1 0
  outer loop
    vertex -0.295442 0.2 0.0520945
    vertex -0.25 0.2 -0.04
    vertex -0.3 0.2 -8.32667e-16
  endloop
endfacet
facet normal 0 1 0
  outer loop
    vertex -0.281908 0.2 0.102606
    vertex -0.25 0.2 -0.04
    vertex -0.295442 0.2 0.0520945
  endloop
endfacet
facet normal 0 1 0
  outer loop
    vertex -0.259808 0.2 0.15
    vertex -0.25 0.2 -0.04
    vertex -0.281908 0.2 0.102606
  endloop
endfacet
facet normal 0 1 0
  outer loop
    vertex -0.229813 0.2 0.192836
    vertex -0.25 0.2 -0.04
    vertex -0.259808 0.2 0.15
  endloop
endfacet
facet normal 0 1 0
  outer loop
    vertex -0.192836 0.2 0.229813
    vertex -0.25 0.2 -0.04
    vertex -0.229813 0.2 0.192836
  endloop
endfacet
facet normal 0 1 0
  outer loop
    vertex -0.15 0.2 0.259808
    vertex -0.25 0.2 -0.04
    vertex -0.192836 0.2 0.229813
  endloop
endfacet
facet normal 6.93499e-16 1 -2.31315e-16
  outer loop
    vertex -0.102606 0.2 0.281908
    vertex -0.25 0.2 -0.04
    vertex -0.15 0.2 0.259808
  endloop
endfacet
facet normal 0 1 0
  outer loop
    vertex 0.25 0.2 -0.05
    vertex 0.281908 0.2 -0.102606
    vertex 0.259808 0.2 -0.15
  endloop
endfacet
facet normal 0 1 0
  outer loop
    vertex 0.25 0.2 -0.05
    vertex 0.259808 0.2 -0.15
    vertex 0.229813 0.2 -0.192836
  endloop
endfacet
facet normal 0 1 0
  outer loop
    vertex 0.25 0.2 -0.05
    vertex 0.229813 0.2 -0.192836
    vertex 0.192836 0.2 -0.229813
  endloop
endfacet
facet normal 0 1 0
  outer loop
    vertex 0.25 0.2 -0.05
    vertex 0.192836 0.2 -0.229813
    vertex 0.15 0.2 -0.259808
  endloop
endfacet
facet normal 7.52991e-16 1 -3.58896e-16
  outer loop
    vertex 0.25 0.2 -0.05
    vertex 0.15 0.2 -0.259808
    vertex 0.102606 0.2 -0.281908
  endloop
endfacet
facet normal -3.86515e-17 1 1.44249e-16
  outer loop
    vertex 0.25 0.2 -0.05
    vertex 0.102606 0.2 -0.281908
    vertex 0.0520945 0.2 -0.295442
  endloop
endfacet
facet normal -1.06445e-17 1 1.21667e-16
  outer loop
    vertex 0.25 0.2 -0.05
    vertex 0.0520945 0.2 -0.295442
    vertex 4.66294e-16 0.2 -0.3
  endloop
endfacet
facet normal 1.11022e-16 1 2.09541e-31
  outer loop
    vertex 0.25 0.2 -0.05
    vertex 4.66294e-16 0.2 -0.3
    vertex -0.25 0.2 -0.05
  endloop
endfacet
facet normal -2.6334e-17 1 9.82799e-17
  outer loop
    vertex -0.0520945 0.2 0.295442
    vertex -0.25 0.2 -0.04
    vertex -0.102606 0.2 0.281908
  endloop
endfacet
facet normal 0 1 0
  outer loop
    vertex 0.295442 0.2 -0.0520945
    vertex 0.25 0.2 -0.05
    vertex 0.25 0.2 -0.04
  endloop
endfacet
facet normal 0 1 0
  outer loop
    vertex 0.295442 0.2 -0.0520945
    vertex 0.281908 0.2 -0.102606
    vertex 0.25 0.2 -0.05
  endloop
endfacet
facet normal 0 1 0
  outer loop
    vertex 0.3 0.2 0
    vertex 0.295442 0.2 -0.0520945
    vertex 0.25 0.2 -0.04
  endloop
endfacet
facet normal 1.11022e-16 1 -9.0632e-33
  outer loop
    vertex 2.22045e-17 0.2 0.3
    vertex 0.25 0.2 -0.04
    vertex -0.25 0.2 -0.04
  endloop
endfacet
facet normal -7.63309e-18 1 8.72466e-17
  outer loop
    vertex 2.22045e-17 0.2 0.3
    vertex -0.25 0.2 -0.04
    vertex -0.0520945 0.2 0.295442
  endloop
endfacet
facet normal 0 1 0
  outer loop
    vertex 0.295442 0.2 0.0520945
    vertex 0.3 0.2 0
    vertex 0.25 0.2 -0.04
  endloop
endfacet
facet normal -7.63309e-18 1 -8.72466e-17
  outer loop
    vertex 0.0520945 0.2 0.295442
    vertex 0.25 0.2 -0.04
    vertex 2.22045e-17 0.2 0.3
  endloop
endfacet
facet normal -2.6334e-17 1 -9.82799e-17
  outer loop
    vertex 0.102606 0.2 0.281908
    vertex 0.25 0.2 -0.04
    vertex 0.0520945 0.2 0.295442
  endloop
endfacet
facet normal 0 1 0
  outer loop
    vertex -0.25 -0.18 -0.04
    vertex -0.25 -0.18 -0.05
    vertex -0.295804 -0.18 -0.05
  endloop
endfacet
facet normal 0 1 0
  outer loop
    vertex -0.25 -0.18 -0.04
    vertex -0.295804 -0.18 -0.05
    vertex -0.296347 -0.18 -0.0466724
  endloop
endfacet
facet normal 0 1 0
  outer loop
    vertex -0.25 -0.18 -0.04
    vertex -0.296347 -0.18 -0.0466724
    vertex -0.296853 -0.18 -0.0433389
  endloop
endfacet
facet normal 0 1 0
  outer loop
    vertex -0.25 -0.18 -0.04
    vertex -0.296853 -0.18 -0.0433389
    vertex -0.297321 -0.18 -0.04
  endloop
endfacet
facet normal 0 -0 -1
  outer loop
    vertex -0.25 0.18 -0.04
    vertex -0.25 -0.18 -0.04
    vertex -0.297321 -0.18 -0.04
  endloop
endfacet
facet normal -0 0 -1
  outer loop
    vertex -0.25 0.18 -0.04
    vertex -0.297321 -0.18 -0.04
    vertex -0.297321 0.18 -0.04
  endloop
endfacet
facet normal 0 -1 -0
  outer loop
    vertex -0.25 0.18 -0.04
    vertex -0.295804 0.18 -0.05
    vertex -0.25 0.18 -0.05
  endloop
endfacet
facet normal 0 -1 0
  outer loop
    vertex -0.25 0.18 -0.04
    vertex -0.296347 0.18 -0.0466724
    vertex -0.295804 0.18 -0.05
  endloop
endfacet
facet normal 0 -1 0
  outer loop
    vertex -0.25 0.18 -0.04
    vertex -0.296853 0.18 -0.0433389
    vertex -0.296347 0.18 -0.0466724
  endloop
endfacet
facet normal -0 -1 0
  outer loop
    vertex -0.25 0.18 -0.04
    vertex -0.297321 0.18 -0.04
    vertex -0.296853 0.18 -0.0433389
  endloop
endfacet
facet normal 0 0 1
  outer loop
    vertex -0.25 0.18 -0.05
    vertex -0.295804 -0.18 -0.05
    vertex -0.25 -0.18 -0.05
  endloop
endfacet
facet normal 0 0 1
  outer loop
    vertex -0.25 0.18 -0.05
    vertex -0.295804 0.18 -0.05
    vertex -0.295804 -0.18 -0.05
  endloop
endfacet
facet normal 0 1 0
  outer loop
    vertex 0.295804 -0.18 -0.05
    vertex 0.25 -0.18 -0.05
    vertex 0.25 -0.18 -0.04
  endloop
endfacet
facet normal 0 1 0
  outer loop
    vertex 0.296347 -0.18 -0.0466724
    vertex 0.295804 -0.18 -0.05
    vertex 0.25 -0.18 -0.04
  endloop
endfacet
facet normal 0 1 0
  outer loop
    vertex 0.296853 -0.18 -0.0433389
    vertex 0.296347 -0.18 -0.0466724
    vertex 0.25 -0.18 -0.04
  endloop
endfacet
facet normal 0 1 0
  outer loop
    vertex 0.297321 -0.18 -0.04
    vertex 0.296853 -0.18 -0.0433389
    vertex 0.25 -0.18 -0.04
  endloop
endfacet
facet normal 0 0 1
  outer loop
    vertex 0.295804 0.18 -0.05
    vertex 0.25 -0.18 -0.05
    vertex 0.295804 -0.18 -0.05
  endloop
endfacet
facet normal 0 0 1
  outer loop
    vertex 0.295804 0.18 -0.05
    vertex 0.25 0.18 -0.05
    vertex 0.25 -0.18 -0.05
  endloop
endfacet
facet normal 0 -1 0
  outer loop
    vertex 0.295804 0.18 -0.05
    vertex 0.25 0.18 -0.04
    vertex 0.25 0.18 -0.05
  endloop
endfacet
facet normal -0 -1 0
  outer loop
    vertex 0.296347 0.18 -0.0466724
    vertex 0.25 0.18 -0.04
    vertex 0.295804 0.18 -0.05
  endloop
endfacet
facet normal -0 -1 0
  outer loop
    vertex 0.296853 0.18 -0.0433389
    vertex 0.25 0.18 -0.04
    vertex 0.296347 0.18 -0.0466724
  endloop
endfacet
facet normal 0 -1 0
  outer loop
    vertex 0.297321 0.18 -0.04
    vertex 0.25 0.18 -0.04
    vertex 0.296853 0.18 -0.0433389
  endloop
endfacet
facet normal 0 -0 -1
  outer loop
    vertex 0.297321 0.18 -0.04
    vertex 0.297321 -0.18 -0.04
    vertex 0.25 -0.18 -0.04
  endloop
endfacet
facet normal -0 0 -1
  outer loop
    vertex 0.297321 0.18 -0.04
    vertex 0.25 -0.18 -0.04
    vertex 0.25 0.18 -0.04
  endloop
endfacet
facet normal -0 0 -1
  outer loop
    vertex 0.25 -0.18 -0.04
    vertex -0.25 -0.2 -0.04
    vertex -0.25 -0.18 -0.04
  endloop
endfacet
facet normal 0 -0 -1
  outer loop
    vertex 0.25 -0.18 -0.04
    vertex 0.25 -0.2 -0.04
    vertex -0.25 -0.2 -0.04
  endloop
endfacet
facet normal -1 0 0
  outer loop
    vertex 0.25 -0.2 -0.04
    vertex 0.25 -0.18 -0.04
    vertex 0.25 -0.18 -0.05
  endloop
endfacet
facet normal -1 0 0
  outer loop
    vertex 0.25 -0.2 -0.04
    vertex 0.25 -0.18 -0.05
    vertex 0.25 -0.2 -0.05
  endloop
endfacet
facet normal 0 0 1
  outer loop
    vertex 0.25 -0.18 -0.05
    vertex -0.25 -0.18 -0.05
    vertex -0.25 -0.2 -0.05
  endloop
endfacet
facet normal 0 0 1
  outer loop
    vertex 0.25 -0.18 -0.05
    vertex -0.25 -0.2 -0.05
    vertex 0.25 -0.2 -0.05
  endloop
endfacet
facet normal 1 -0 0
  outer loop
    vertex -0.25 -0.2 -0.04
    vertex -0.25 -0.18 -0.05
    vertex -0.25 -0.18 -0.04
  endloop
endfacet
facet normal 1 0 0
  outer loop
    vertex -0.25 -0.2 -0.04
    vertex -0.25 -0.2 -0.05
    vertex -0.25 -0.18 -0.05
  endloop
endfacet
facet normal -0 0 -1
  outer loop
    vertex 0.25 0.2 -0.04
    vertex -0.25 0.18 -0.04
    vertex -0.25 0.2 -0.04
  endloop
endfacet
facet normal 0 -0 -1
  outer loop
    vertex 0.25 0.2 -0.04
    vertex 0.25 0.18 -0.04
    vertex -0.25 0.18 -0.04
  endloop
endfacet
facet normal -1 0 0
  outer loop
    vertex 0.25 0.18 -0.04
    vertex 0.25 0.2 -0.04
    vertex 0.25 0.2 -0.05
  endloop
endfacet
facet normal -1 0 0
  outer loop
    vertex 0.25 0.18 -0.04
    vertex 0.25 0.2 -0.05
    vertex 0.25 0.18 -0.05
  endloop
endfacet
facet normal 0 0 1
  outer loop
    vertex 0.25 0.2 -0.05
    vertex -0.25 0.2 -0.05
    vertex -0.25 0.18 -0.05
  endloop
endfacet
facet normal 0 0 1
  outer loop
    vertex 0.25 0.2 -0.05
    vertex -0.25 0.18 -0.05
    vertex 0.25 0.18 -0.05
  endloop
endfacet
facet normal 1 -0 0
  outer loop
    vertex -0.25 0.18 -0.04
    vertex -0.25 0.2 -0.05
    vertex -0.25 0.2 -0.04
  endloop
endfacet
facet normal 1 0 0
  outer loop
    vertex -0.25 0.18 -0.04
    vertex -0.25 0.18 -0.05
    vertex -0.25 0.2 -0.05
  endloop
endfacet
endsolid Created by Gmsh
